<svg xmlns="http://www.w3.org/2000/svg" width="152.206" height="152.206" viewBox="0 0 152.206 152.206">
  <path id="Icon_awesome-globe-americas" data-name="Icon awesome-globe-americas" d="M76.1.563a76.1,76.1,0,1,0,76.1,76.1A76.1,76.1,0,0,0,76.1.563ZM101.355,110.3c-1.2,1.191-2.452,2.44-3.471,3.461a7.333,7.333,0,0,0-1.893,3.287c-.463,1.737-.838,3.492-1.464,5.177L89.191,136.6A61.328,61.328,0,0,1,76.1,138.039v-8.4c.519-3.873-2.344-11.127-6.944-15.727a9.82,9.82,0,0,1-2.875-6.944V97.143a9.787,9.787,0,0,0-5.051-8.583c-4.41-2.44-10.682-5.849-14.978-8.012a44.237,44.237,0,0,1-9.712-6.674l-.245-.221a35.226,35.226,0,0,1-5.542-6.364c-2.878-4.226-7.567-11.176-10.615-15.693A61.707,61.707,0,0,1,51.808,20.328l7.368,3.685a4.91,4.91,0,0,0,7.107-4.391V16.154a61.329,61.329,0,0,1,7.485-.743L82.452,24.1a4.91,4.91,0,0,1,0,6.944l-1.439,1.436L77.84,35.65a2.456,2.456,0,0,0,0,3.471l1.439,1.439a2.456,2.456,0,0,1,0,3.471l-2.455,2.455a2.457,2.457,0,0,1-1.737.718H72.329a2.453,2.453,0,0,0-1.712.7l-3.044,2.961a2.457,2.457,0,0,0-.485,2.857l4.784,9.571a2.455,2.455,0,0,1-2.194,3.554H67.947a2.452,2.452,0,0,1-1.608-.6l-2.848-2.473a4.915,4.915,0,0,0-4.772-.951l-9.565,3.188a3.668,3.668,0,0,0-.479,6.76l3.4,1.7a20.782,20.782,0,0,0,9.3,2.2c3.228,0,6.932,8.374,9.82,9.82H91.68a9.825,9.825,0,0,1,6.944,2.875l4.2,4.2a9.36,9.36,0,0,1,2.74,6.619,14.28,14.28,0,0,1-4.21,10.12Zm26.608-28.032a7.365,7.365,0,0,1-4.342-3.059L118.1,70.93a7.356,7.356,0,0,1,0-8.169l6.012-9.016a7.357,7.357,0,0,1,2.835-2.5l3.983-1.992a59.452,59.452,0,0,1,5.984,35.25Z" transform="translate(0 -0.563)" fill="#dc3b51"/>
</svg>
