<svg xmlns="http://www.w3.org/2000/svg" width="27.649" height="25.921" viewBox="0 0 27.649 25.921">
  <path id="Icon_metro-cart" data-name="Icon metro-cart" d="M12.939,27.185a2.592,2.592,0,1,1-2.592-2.592,2.592,2.592,0,0,1,2.592,2.592Zm17.28,0a2.592,2.592,0,1,1-2.592-2.592A2.592,2.592,0,0,1,30.219,27.185Zm0-11.232V5.584H9.483A1.728,1.728,0,0,0,7.755,3.856H2.571V5.584H6.027l1.3,11.126a3.455,3.455,0,0,0,2.158,6.155H30.219V21.136H9.483a1.728,1.728,0,0,1-1.728-1.728c0-.006,0-.012,0-.018l22.464-3.438Z" transform="translate(-2.571 -3.856)" fill="#fff"/>
</svg>
